<?xml version="1.0" standalone="no"?>
<!DOCTYPE svg PUBLIC "-//W3C//DTD SVG 20010904//EN"
 "http://www.w3.org/TR/2001/REC-SVG-20010904/DTD/svg10.dtd">
<svg version="1.0" xmlns="http://www.w3.org/2000/svg"
 width="2225.000000pt" height="2225.000000pt" viewBox="0 0 2225.000000 2225.000000"
 preserveAspectRatio="xMidYMid meet">
<metadata>
Created by potrace 1.11, written by Peter Selinger 2001-2013
</metadata>
<g transform="translate(0.000000,2225.000000) scale(0.100000,-0.100000)"
fill="#000000" stroke="none">
<path d="M13879 17386 c-2 -2 -47 -6 -99 -10 -98 -6 -131 -10 -260 -27 -112
-15 -205 -31 -270 -44 -14 -3 -47 -10 -75 -16 -400 -79 -969 -302 -1334 -524
-51 -30 -94 -55 -97 -55 -2 0 -66 -41 -142 -91 -357 -239 -644 -480 -932 -785
-108 -114 -135 -145 -246 -284 -194 -241 -353 -477 -507 -755 -39 -72 -198
-391 -225 -456 -48 -110 -64 -140 -83 -149 -21 -12 -103 -4 -133 12 -35 19
-398 120 -476 133 -19 3 -42 8 -50 10 -16 4 -51 11 -109 21 -18 3 -43 8 -55
10 -86 17 -238 36 -401 51 -115 10 -551 10 -675 0 -91 -7 -109 -9 -210 -22
-132 -17 -328 -54 -455 -86 -44 -12 -89 -23 -99 -25 -21 -4 -37 -9 -181 -54
-377 -118 -716 -277 -1036 -486 -88 -57 -334 -238 -364 -268 -7 -6 -39 -33
-71 -60 -92 -78 -362 -351 -455 -461 -194 -230 -382 -500 -504 -726 -73 -133
-195 -392 -195 -412 0 -7 -4 -17 -9 -22 -4 -6 -13 -23 -19 -40 -5 -16 -26 -75
-46 -129 -31 -86 -102 -321 -111 -366 -2 -9 -15 -69 -30 -135 -48 -216 -45
-247 36 -279 84 -34 157 -13 202 57 30 45 40 78 82 257 127 542 428 1126 819
1589 89 106 298 317 396 402 41 35 77 67 80 70 14 17 269 205 355 261 284 186
594 335 920 443 124 41 336 99 405 111 14 3 32 7 40 9 8 2 31 7 50 10 19 3 58
10 85 15 28 5 68 12 90 14 22 3 60 8 85 12 224 32 744 38 911 9 13 -2 46 -6
73 -9 293 -33 614 -115 981 -251 108 -40 193 -50 236 -27 38 20 67 70 136 239
61 151 224 491 296 618 106 189 242 393 400 600 162 213 528 593 742 771 479
398 950 656 1520 832 114 36 214 63 280 76 11 3 52 11 90 20 74 15 219 41 295
51 25 4 59 8 75 11 17 2 53 6 80 9 28 2 88 8 135 12 172 15 746 8 849 -12 9
-1 43 -6 76 -9 196 -22 510 -91 735 -162 436 -137 902 -381 1295 -677 79 -60
225 -177 235 -188 3 -3 43 -39 90 -80 118 -102 360 -347 455 -460 44 -52 88
-103 98 -114 47 -50 252 -332 324 -445 152 -238 292 -499 388 -726 25 -60 49
-118 54 -129 5 -11 14 -36 21 -55 7 -19 16 -44 21 -55 73 -166 209 -662 263
-960 3 -16 8 -41 11 -55 2 -14 11 -68 20 -122 18 -114 38 -174 67 -206 24 -25
96 -49 173 -57 64 -7 121 -14 165 -21 19 -3 46 -7 60 -9 14 -2 70 -13 125 -25
646 -139 1203 -489 1669 -1050 144 -172 301 -397 395 -562 11 -21 31 -55 42
-75 148 -260 285 -610 363 -924 30 -124 44 -190 70 -344 9 -57 26 -190 33
-275 10 -107 10 -583 0 -712 -16 -215 -61 -512 -109 -708 -11 -47 -21 -92 -23
-100 -24 -106 -103 -342 -172 -510 -59 -142 -209 -443 -224 -448 -5 -2 -9 -8
-9 -14 0 -20 -171 -269 -272 -395 -86 -109 -354 -388 -453 -474 -239 -204
-493 -368 -770 -494 -105 -48 -379 -139 -480 -159 -44 -9 -91 -19 -105 -22
-31 -7 -41 -8 -115 -18 -33 -4 -71 -10 -85 -12 -136 -22 -547 -22 -735 0 -11
2 -49 6 -85 10 -89 11 -338 51 -435 72 -88 18 -205 58 -245 82 -46 29 -87 81
-100 128 -11 38 -13 544 -13 2665 l0 2619 -226 0 c-124 0 -231 -4 -236 -8 -7
-5 -11 -396 -10 -1220 0 -668 -3 -1218 -6 -1224 -3 -5 -26 21 -50 59 -24 37
-48 73 -54 80 -5 6 -21 26 -35 45 -82 109 -278 270 -418 341 -57 30 -193 85
-220 90 -9 2 -35 9 -57 15 -46 13 -81 19 -145 28 -25 3 -56 7 -70 10 -14 2
-77 5 -140 5 -351 1 -603 -78 -890 -278 -63 -45 -199 -177 -246 -239 -16 -21
-32 -41 -35 -44 -15 -12 -120 -182 -154 -250 -59 -118 -120 -285 -155 -423
-17 -70 -33 -138 -35 -150 -3 -31 -16 -117 -21 -147 -26 -156 -26 -680 0 -835
3 -16 10 -61 17 -100 54 -324 184 -619 375 -857 80 -99 223 -237 313 -302 226
-162 453 -236 741 -242 278 -4 518 47 725 156 211 110 387 285 559 558 32 50
59 92 61 92 2 0 2 -102 0 -228 -4 -208 -3 -231 16 -277 72 -184 292 -327 679
-441 110 -33 306 -76 400 -88 25 -3 55 -8 67 -10 12 -3 53 -8 90 -11 37 -4 79
-9 93 -12 46 -9 544 -11 610 -2 36 5 81 11 100 13 481 66 968 248 1370 515
193 128 325 237 505 416 272 271 494 572 697 945 215 394 381 827 453 1185 3
17 7 35 9 40 1 6 7 33 11 60 5 28 10 52 10 55 1 3 5 28 10 55 4 28 9 58 11 69
2 10 6 44 9 75 4 31 8 67 11 81 12 72 19 230 19 445 0 274 -6 365 -41 610 -28
206 -47 297 -119 575 -2 8 -15 53 -29 100 -186 634 -480 1193 -853 1620 -57
65 -239 248 -304 306 -314 276 -723 510 -1149 657 -78 27 -237 75 -267 82 -84
17 -247 59 -283 73 -58 21 -126 84 -151 140 -20 43 -26 66 -69 272 -182 869
-581 1691 -1139 2350 -203 240 -467 505 -651 656 -19 16 -44 37 -55 47 -43 40
-295 227 -396 295 -381 254 -789 448 -1217 578 -99 31 -342 92 -427 109 -154
30 -312 53 -484 70 -35 4 -82 9 -105 11 -50 6 -622 15 -627 10z m2090 -8781
c52 -3 97 -7 100 -9 3 -2 22 -7 41 -10 57 -9 160 -45 235 -83 359 -181 592
-583 650 -1123 3 -30 8 -73 10 -95 6 -47 6 -387 1 -430 -2 -16 -6 -57 -10 -90
-49 -440 -238 -817 -516 -1027 -250 -189 -598 -252 -906 -162 -319 92 -546
335 -682 729 -30 88 -64 225 -77 315 -4 25 -8 52 -10 60 -2 8 -6 49 -10 90 -4
41 -9 91 -11 110 -5 45 -4 354 0 400 2 19 7 67 10 105 3 39 8 82 11 98 3 15
10 55 16 90 54 314 205 622 386 787 72 66 92 82 148 116 129 79 261 121 405
131 47 3 87 7 88 8 2 2 9 2 15 0 7 -2 54 -6 106 -10z"/>
<path d="M4662 10762 c-10 -21 -9 -5558 1 -5569 11 -10 428 -11 450 -1 16 8
17 146 16 2781 -1 1525 -3 2780 -6 2789 -3 15 -27 17 -228 17 -204 1 -225 -1
-233 -17z"/>
<path d="M2437 10374 c-1 -1 -53 -5 -114 -8 -62 -3 -127 -8 -145 -10 -18 -3
-58 -7 -88 -11 -124 -13 -310 -50 -445 -90 -211 -62 -474 -200 -675 -356 -132
-102 -361 -333 -430 -434 -224 -327 -309 -495 -401 -785 -39 -123 -91 -354
-104 -459 -4 -30 -8 -62 -10 -72 -20 -101 -27 -585 -12 -744 35 -366 121 -686
264 -983 36 -75 151 -282 162 -292 3 -3 26 -34 50 -70 263 -387 685 -685 1160
-820 62 -17 125 -34 139 -36 15 -3 34 -7 42 -9 8 -2 31 -7 50 -10 19 -3 46 -8
60 -10 52 -11 67 -13 133 -20 37 -3 77 -8 89 -10 29 -6 279 -18 373 -18 77 0
318 11 380 18 17 1 62 6 100 9 102 10 157 16 185 21 14 2 45 7 70 10 25 4 68
11 95 17 28 5 64 12 80 15 59 10 333 82 368 97 30 12 37 20 37 43 2 102 -1
428 -4 430 -2 2 -74 -20 -381 -117 -74 -23 -255 -67 -315 -75 -85 -13 -95 -14
-190 -22 -52 -4 -178 -8 -280 -8 -274 0 -413 14 -671 70 -94 20 -335 107 -432
157 -127 64 -302 179 -389 256 -64 57 -137 133 -221 230 -97 113 -245 382
-305 553 -30 85 -85 297 -98 374 -3 22 -7 49 -9 60 -34 212 -40 679 -11 841 2
11 6 40 10 65 12 79 16 102 37 184 107 429 308 787 608 1085 229 227 465 362
781 445 184 48 431 76 685 75 94 0 181 -2 195 -4 14 -2 57 -7 97 -11 39 -3 84
-8 100 -11 241 -41 400 -81 601 -153 73 -26 112 -36 113 -28 0 7 2 35 4 62 1
28 6 104 10 170 12 180 11 191 -14 204 -58 32 -389 107 -596 136 -22 3 -51 8
-65 10 -14 3 -59 8 -100 11 -41 3 -77 7 -80 9 -16 10 -483 28 -493 19z"/>
<path d="M7727 9014 c-1 -1 -42 -4 -92 -7 -436 -28 -791 -178 -1069 -452 -107
-105 -125 -125 -199 -231 -131 -187 -242 -457 -293 -709 -2 -11 -6 -31 -9 -45
-27 -128 -42 -323 -39 -525 2 -149 8 -256 19 -315 2 -14 7 -45 10 -70 2 -25 7
-56 10 -70 67 -339 180 -604 354 -830 163 -212 376 -379 613 -482 86 -37 262
-93 323 -103 16 -3 55 -10 85 -15 162 -30 483 -32 630 -6 14 3 54 10 90 16
155 28 375 111 535 202 121 69 312 237 408 358 232 295 366 659 404 1100 20
231 5 551 -37 760 -6 30 -14 66 -16 79 -11 53 -47 176 -74 251 -139 386 -414
712 -750 891 -65 35 -236 108 -268 114 -9 1 -42 10 -73 19 -31 9 -67 19 -80
21 -13 3 -35 7 -49 10 -14 3 -43 8 -65 11 -22 3 -42 7 -45 9 -8 5 -318 23
-323 19z m284 -418 c556 -102 932 -585 996 -1281 13 -147 7 -472 -12 -558 -2
-12 -6 -40 -9 -62 -4 -34 -14 -85 -31 -155 -14 -56 -47 -157 -74 -225 -31 -78
-120 -243 -145 -268 -6 -6 -23 -28 -36 -47 -22 -32 -87 -105 -135 -153 -70
-69 -238 -174 -340 -214 -152 -58 -279 -78 -475 -77 -196 2 -359 41 -520 125
-248 129 -461 384 -573 684 -37 99 -75 236 -87 314 -6 36 -13 77 -15 91 -29
181 -24 528 9 705 4 17 8 41 11 55 11 57 60 220 85 285 109 276 255 468 466
610 152 103 302 160 474 182 25 3 46 7 48 8 10 9 291 -5 363 -19z"/>
<path d="M10422 8937 c-10 -14 -8 -2365 2 -2482 4 -44 9 -100 11 -125 36 -384
168 -703 375 -910 82 -82 147 -128 255 -183 71 -35 202 -80 265 -91 19 -3 46
-8 60 -10 77 -14 117 -17 235 -17 359 0 634 92 896 301 125 99 283 282 359
415 18 31 34 54 37 51 3 -2 5 -158 4 -345 0 -252 3 -343 12 -348 7 -4 96 -9
200 -10 l187 -2 0 1879 c0 1743 -1 1878 -17 1884 -31 12 -444 6 -448 -7 -3 -7
-6 -516 -8 -1132 -2 -616 -7 -1142 -11 -1170 -3 -27 -13 -84 -22 -125 -8 -41
-18 -86 -20 -100 -11 -52 -57 -177 -87 -235 -61 -117 -194 -301 -269 -371
-117 -112 -288 -204 -426 -229 -14 -2 -48 -9 -76 -14 -110 -21 -328 -30 -396
-16 -14 3 -40 8 -58 11 -57 9 -142 42 -200 78 -215 130 -347 404 -380 786 -5
52 -8 640 -7 1307 l2 1212 -24 6 c-46 11 -441 4 -451 -8z"/>
</g>
</svg>
