<svg id="Слой_1" data-name="Слой 1" xmlns="http://www.w3.org/2000/svg" viewBox="0 0 2225.3 1253.31"><path d="M689.06,1089.28c-.23-23.17,2.56-47.72,9.92-71.59,13-42.27,36.73-76.72,76.55-99A163.72,163.72,0,0,1,829,900.24a204.27,204.27,0,0,1,65.51-.64c55,8.59,95.68,37.06,121.08,86,9.72,18.75,15.68,38.69,19.15,59.44a285,285,0,0,1,2,77.66c-3.68,34.38-13.83,66.7-34.12,95.38q-31,43.77-83,59.4c-27.62,8.27-55.79,9.77-84.33,5.88-40.78-5.55-75-23.15-101.61-54.18-16.69-19.43-27.78-41.83-35-66.2C691.72,1139.5,689,1115.44,689.06,1089.28Zm51.06-.23c-.15,20.16,1.94,39.12,7.1,57.73,6.86,24.71,18.23,47,36.91,65.15A107.23,107.23,0,0,0,834.19,1240a126.56,126.56,0,0,0,58.51.29c25.77-5.82,46.57-19.32,62.69-39.71,19.63-24.83,28.42-53.75,31.73-84.53a241.49,241.49,0,0,0-.91-59.28,175.17,175.17,0,0,0-14.62-50.86c-8.52-18.14-20.25-33.86-36.39-46.22-18.22-14-39-21.07-61.89-22.65-23.65-1.63-46.16,2.29-66.8,14.2-30.45,17.58-47.8,44.83-57.89,77.16A196,196,0,0,0,740.12,1089.05Z" transform="translate(-86.57 -59.33)" style="fill:#20a6e0"/><path d="M463.65,824.31c-7.66-2.67-14.88-5.32-22.18-7.71a286.19,286.19,0,0,0-112.09-13.5c-27.91,2.18-52.47,6.89-78,18.88-45,21.19-78.65,67.92-93.66,104.4-7.95,19.94-13.86,38.64-16.47,60a323.42,323.42,0,0,0-.89,72.53c4.21,41.18,16.95,79.1,42.85,111.69,20.67,26,46.91,44.13,77.45,56,32.82,12.75,67,16.64,101.9,15.84,18.68-.43,37.26-2.09,55.38-6.57,14.39-3.55,36.51-11,50.7-15.41.8-.25,1.59-.53,2.85-1,.11,1.44.26,2.49.27,3.55,0,14-.06,25.68.06,39.7,0,2.63-.9,3.68-3.3,4.48-20.59,6.91-50.67,12.94-72.2,15.24-23.19,2.48-48.4,4.24-71.65,3.2-47.07-2.1-90-10.78-130.35-36.37-39.55-25.07-66.93-61.28-85.46-104.63-9.59-22.42-15.57-45.86-19-70.06a343.33,343.33,0,0,1-3-63.42c2.25-48.63,13.23-94.79,38.65-136.69,26.15-43.11,61.84-75.15,107.45-94.86C255.22,770,292.29,761,345.37,761c38.34,0,95.67,9.74,117.56,18.18,1.75.68,3.15,1.28,3.13,3.64-.07,14.36-2,25.17-2.06,39.53A14.17,14.17,0,0,1,463.65,824.31Z" transform="translate(-86.57 -59.33)" style="fill:#20a6e0"/><path d="M1418.77,1280.39H1414c-11.62,0-20-.28-31.59-.15-2.71,0-3.55-.74-3.54-3.57.11-21.55.06-41.68.06-63.22v-4l-.71-.3c-.58,1-1.18,1.91-1.72,2.89a152.69,152.69,0,0,1-53.78,56,126.3,126.3,0,0,1-50.65,17.42c-17.86,2.27-35.68,2.13-53.32-1.63-32.86-7-56.92-26-72.09-56.63-8.2-16.55-12.71-34.25-15.36-52.54-2.79-19.15-3-38.42-3-57.72q0-104,0-208c0-5.18,0-5.18,5-5.18l38.67,0c4.53,0,4.54,0,4.54,4.86,0,67.43-1.39,234.13.38,249.91,2.37,21.11,9.48,73.81,57.22,84.48,16.33,3.52,37.79,1.8,54-1.87,24.48-5.53,43.43-19.52,57.16-40.89,12.09-15.08,18.12-29.79,22.16-47.95,5-22.68,4.34-48.87,4.37-72q.13-85.65,0-171.32c0-5.24,0-5.24,5.2-5.24h37.17c4.59,0,4.59,0,4.6,4.86v371.71Z" transform="translate(-86.57 -59.33)" style="fill:#20a6e0"/><path d="M599.36,1000.83v274.39c0,4.84,0,4.85-4.81,4.85-12.9,0-25.81-.07-38.7,0-2.68,0-4-.72-3.6-3.54a18.1,18.1,0,0,0,0-2.33V726.8c0-7-.36-6.06,6-6.08,12.24,0,24.48,0,36.72,0,4.33,0,4.34,0,4.34,4.39Z" transform="translate(-86.57 -59.33)" style="fill:#20a6e0"/><path d="M2284,761c-45.42-128.61-132.18-215.47-268.9-244.76-16.82-3.6-24-11.88-27-27.74-22.32-118.87-76.86-219.94-165.9-302.25-78-72.12-169.94-114.38-275-124.58C1435.52,50.8,1331.91,78.15,1239,141.84c-81.65,56-142,130.18-182.29,220.83-8.82,19.84-6.16,20.74-27.55,13.81-74.3-24.11-153.9-29.21-230.06-11.88C705.22,386,626,433.56,563.8,510c-44.69,54.93-74.29,117.05-87.17,187-1.4,7.59-2.48,13.08,6.24,16.17,8.17,2.91,14.95,1.93,20.1-5.52,4-5.74,5-12.42,6.44-19.1C520,640.81,539.78,597,567.17,556.56,669.5,405.45,864.28,344.87,1037,411.82c24.76,9.6,29.24,8.24,38.4-15.08,20.33-51.81,47.87-99.4,83.74-141.79,77.76-91.89,175.92-149.35,295.71-162,136.54-14.46,255.82,28.81,355.3,123.72,85.95,82,134.25,183.86,152.23,300.76,3.1,20.17,6,23.76,24.57,25.59,92.09,9.08,162.28,56.31,215.86,128.8,66.82,90.39,88.05,192.82,72.13,303.62-13.18,91.7-52.06,170.62-121.77,231.4-83.54,72.84-172.75,86-282.76,63.06a94.34,94.34,0,0,1-20.73-6.57c-12.06-5.48-14-15.15-14.19-21.52-.12-5,0-81.52,0-81.7V720.57h-42.28c-4.9,0-4.91,0-4.91,4.86v240.9l-1,.36c-.78-1.15-1.6-2.28-2.33-3.47-10.73-17.49-24.34-32.23-41.66-43.47-20-13-41.93-19.71-65.66-21.14-27.35-1.65-53.54,2.62-78,15.31-32,16.59-53.64,42.64-67.91,75.18-10.68,24.36-16.07,50-17.93,76.41-2.71,38.4-.91,77.59,11.88,114.12,9.52,27.18,25,50.17,46.3,70.11,17.48,16.4,37.76,27.76,61.29,32.93,16.72,3.67,33.62,3.78,50.57,1.61,22.08-2.82,43.49-9.58,61.62-22.49,19.34-13.78,35.17-34,46.65-54.55.56-1,1.21-2,1.81-2.92l.68.22v3.54c0,1.88,0,3.37,0,4.94l0,0q-.36,13.05-.7,26.1c-.12,4.21-.23,8.49.74,12.59a33,33,0,0,0,4.46,10c5.76,9,14.31,16,23.61,21.32,6.91,4,14.74,7.08,22.43,10,1.45.57,2.93,1.12,4.41,1.66.32.13.59.25.91.37v0c.83.3,1.64.62,2.49.92h0c45.89,15.91,108.31,19.68,144.61,14.62,105.51-14.73,186.36-70.89,242.8-159.49C2318.21,1029,2332.05,897,2284,761ZM1773.28,1173.7c-8.29,19.38-19.72,36.49-36.46,49.74a98.44,98.44,0,0,1-51.47,21.06c-18.69,2-36.69,0-53.82-7.94-18.74-8.64-32.63-22.61-42.93-40.17-12.2-20.82-18.35-43.61-21.58-67.35a297.94,297.94,0,0,1-2-54.87c1.35-27.36,6.41-54,18.66-78.8,10.82-21.94,26.22-39.53,48.87-50,17.44-8.09,35.9-9.34,54.65-7.23,22.25,2.5,41.77,11.3,58,26.8,14.14,13.47,23.6,29.9,30.35,48,9.47,25.43,12.26,51.93,12.7,78.81C1788.05,1119.93,1784.49,1147.52,1773.28,1173.7Z" transform="translate(-86.57 -59.33)" style="fill:#20a6e0"/></svg>