<?xml version="1.0" encoding="utf-8"?>
<!-- Generator: Adobe Illustrator 25.0.0, SVG Export Plug-In . SVG Version: 6.00 Build 0)  -->
<svg version="1.1"
	 id="svg8" xmlns:cc="http://creativecommons.org/ns#" xmlns:dc="http://purl.org/dc/elements/1.1/" xmlns:rdf="http://www.w3.org/1999/02/22-rdf-syntax-ns#" xmlns:svg="http://www.w3.org/2000/svg"
	 xmlns="http://www.w3.org/2000/svg" xmlns:xlink="http://www.w3.org/1999/xlink" x="0px" y="0px" viewBox="0 0 1105.2 2222.5"
	 style="enable-background:new 0 0 1105.2 2222.5;" xml:space="preserve">
<style type="text/css">
	.st0{fill:none;}
	.st1{fill:#12284A;}
	.st2{fill:url(#rect2415-4-9-9_1_);}
	.st3{fill:url(#rect2415-4-9_1_);}
	.st4{fill:url(#rect2415-4-9-6_1_);}
	.st5{fill:url(#rect2415-4_1_);}
	.st6{fill:#455D80;stroke:#12284A;stroke-linecap:round;stroke-linejoin:round;stroke-miterlimit:15.1181;}
	.st7{fill:#445B75;}
	.st8{stroke:#434343;stroke-width:0.5;stroke-miterlimit:15.1181;}
	.st9{fill:#161616;}
	.st10{fill:#0A0D13;}
	.st11{fill:#091427;}
	.st12{opacity:0.5561;fill-rule:evenodd;clip-rule:evenodd;fill:#235A91;enable-background:new    ;}
	.st13{fill:url(#rect5261_2_);}
	.st14{fill:none;stroke:#292929;stroke-width:0.2458;stroke-linecap:round;stroke-miterlimit:14.7049;}
	.st15{fill:#FFFFFF;}
	.st16{display:none;fill:url(#path998_1_);}
</style>
<pattern  y="2222.5" width="363" height="730" patternUnits="userSpaceOnUse" id="rect5261_1_" viewBox="0 -730 363 730" style="overflow:visible;">
	<g>
		<rect y="-730" class="st0" width="363" height="730"/>
		<g>
			<rect y="-730" class="st0" width="363" height="730"/>
		</g>
	</g>
</pattern>
<path id="rect2415-6-8" class="st1" d="M1075.5,571.9h25.8c1.4,0,2.5,1.1,2.5,2.5v256.8c0,1.4-1.1,2.5-2.5,2.5h-25.8
	c-1.4,0-2.5-1.1-2.5-2.5V574.4C1073,573,1074.1,571.9,1075.5,571.9z"/>
<linearGradient id="rect2415-4-9-9_1_" gradientUnits="userSpaceOnUse" x1="-679.3851" y1="772.0479" x2="-679.3851" y2="839.8875" gradientTransform="matrix(3.7795 0 0 3.7795 3656.136 -2342.855)">
	<stop  offset="0" style="stop-color:#455D80"/>
	<stop  offset="0.2" style="stop-color:#19365E"/>
	<stop  offset="0.8" style="stop-color:#19365E"/>
	<stop  offset="1" style="stop-color:#455D80"/>
</linearGradient>
<path id="rect2415-4-9-9" class="st2" d="M1075.5,575.1h25.8c1.4,0,2.5,1.1,2.5,2.5V829c0,1.4-1.1,2.5-2.5,2.5h-25.8
	c-1.4,0-2.5-1.1-2.5-2.5V577.6C1073,576.2,1074.1,575.1,1075.5,575.1z"/>
<path id="rect2415-6" class="st1" d="M2.9,515.4h25.8c1.4,0,2.5,1.1,2.5,2.5v158.6c0,1.4-1.1,2.5-2.5,2.5H2.9
	c-1.4,0-2.5-1.1-2.5-2.5V517.9C0.4,516.6,1.6,515.4,2.9,515.4z"/>
<linearGradient id="rect2415-4-9_1_" gradientUnits="userSpaceOnUse" x1="-870.0415" y1="762.0265" x2="-870.0415" y2="803.8839" gradientTransform="matrix(3.7795 0 0 3.7795 3304.1218 -2361.3792)">
	<stop  offset="0" style="stop-color:#455D80"/>
	<stop  offset="0.2" style="stop-color:#19365E"/>
	<stop  offset="0.8" style="stop-color:#19365E"/>
	<stop  offset="1" style="stop-color:#455D80"/>
</linearGradient>
<path id="rect2415-4-9" class="st3" d="M2.9,518.7h25.8c1.4,0,2.5,1.1,2.5,2.5v153.2c0,1.4-1.1,2.5-2.5,2.5H2.9
	c-1.4,0-2.5-1.1-2.5-2.5V521.2C0.4,519.8,1.6,518.7,2.9,518.7z"/>
<path id="rect2415-6-0" class="st1" d="M2.9,728.8h25.8c1.4,0,2.5,1.1,2.5,2.5v158.6c0,1.4-1.1,2.5-2.5,2.5H2.9
	c-1.4,0-2.5-1.1-2.5-2.5V731.3C0.4,730,1.6,728.8,2.9,728.8z"/>
<linearGradient id="rect2415-4-9-6_1_" gradientUnits="userSpaceOnUse" x1="-870.0415" y1="799.9583" x2="-870.0415" y2="841.8156" gradientTransform="matrix(3.7795 0 0 3.7795 3304.1218 -2291.3423)">
	<stop  offset="0" style="stop-color:#455D80"/>
	<stop  offset="0.2" style="stop-color:#19365E"/>
	<stop  offset="0.8" style="stop-color:#19365E"/>
	<stop  offset="1" style="stop-color:#455D80"/>
</linearGradient>
<path id="rect2415-4-9-6" class="st4" d="M2.9,732.1h25.8c1.4,0,2.5,1.1,2.5,2.5v153.2c0,1.4-1.1,2.5-2.5,2.5H2.9
	c-1.4,0-2.5-1.1-2.5-2.5V734.6C0.4,733.2,1.6,732.1,2.9,732.1L2.9,732.1z"/>
<path id="rect2415" class="st1" d="M2.9,353.4h25.8c1.4,0,2.5,1.1,2.5,2.5v80c0,1.4-1.1,2.5-2.5,2.5H2.9c-1.4,0-2.5-1.1-2.5-2.5v-80
	C0.4,354.6,1.6,353.4,2.9,353.4z"/>
<linearGradient id="rect2415-4_1_" gradientUnits="userSpaceOnUse" x1="-870.0415" y1="733.2317" x2="-870.0415" y2="754.2927" gradientTransform="matrix(3.7795 0 0 3.7795 3304.1218 -2414.5493)">
	<stop  offset="0" style="stop-color:#455D80"/>
	<stop  offset="0.2" style="stop-color:#19365E"/>
	<stop  offset="0.8" style="stop-color:#19365E"/>
	<stop  offset="1" style="stop-color:#455D80"/>
</linearGradient>
<path id="rect2415-4" class="st5" d="M2.9,356.7h25.8c1.4,0,2.5,1.1,2.5,2.5v74.6c0,1.4-1.1,2.5-2.5,2.5H2.9c-1.4,0-2.5-1.1-2.5-2.5
	v-74.6C0.4,357.8,1.6,356.7,2.9,356.7z"/>
<path class="st0" d="M924.4,1.9H179.9C86.2,1.9,10.3,77.8,10.4,171.4v1880.1c0,93.6,75.9,169.5,169.5,169.5h744.5
	c93.6,0,169.5-75.9,169.5-169.5V171.4C1093.9,77.8,1018,1.9,924.4,1.9z M1088,2051.5c0,90.8-72.9,163.6-163.6,163.6H179.9
	c-90.7,0-163.6-72.9-163.6-163.6V171.4C16.3,80.7,89.1,7.8,179.9,7.8h744.5c90.7,0,163.6,72.9,163.6,163.6V2051.5z"/>
<path class="st6" d="M924.4,1.9H179.9C86.2,1.9,10.3,77.8,10.4,171.4v1880.1c0,93.6,75.9,169.5,169.5,169.5h744.5
	c93.6,0,169.5-75.9,169.5-169.5V171.4C1093.9,77.8,1018,1.9,924.4,1.9z M1041.9,2055.9c0,64.1-52,116.1-116.1,116.1H178.5
	c-64.1,0-116.1-52-116.1-116.1V167.1C62.4,103,114.4,51,178.5,51H267c13.6,0,20.6,1.4,20.6,22.9s13.3,57.8,61,57.8h407
	c47.7,0,61-36.3,61-57.8s7-22.9,20.6-22.9h88.6c64.1,0,116.1,52,116.1,116.1V2055.9z"/>
<g>
	<rect x="8.8" y="1980.2" class="st7" width="53.6" height="24.8"/>
	<rect x="850.9" y="0.3" class="st7" width="24.8" height="36.4"/>
	<rect x="8.8" y="221.7" class="st7" width="53.6" height="24.8"/>
	<rect x="1041.9" y="221.7" class="st7" width="53.5" height="24.8"/>
	<rect x="1041.9" y="1980.2" class="st7" width="53.5" height="24.8"/>
	<rect x="228.5" y="2191.2" class="st7" width="24.8" height="31.4"/>
</g>
<path class="st8" d="M921.5,15.8H182.7c-88.2,0-159.8,71.6-159.8,159.9v1871.5c0,88.2,71.5,159.8,159.8,159.8h738.8
	c88.2,0,159.8-71.5,159.8-159.8V175.6C1081.3,87.4,1009.8,15.8,921.5,15.8z M1041.9,2055.9c0,64.1-52,116.1-116.1,116.1H178.5
	c-64.1,0-116.1-52-116.1-116.1V167.1C62.4,103,114.4,51,178.5,51H267c13.6,0,20.6,1.4,20.6,22.9s13.3,57.8,61,57.8h407
	c47.7,0,61-36.3,61-57.8s7-22.9,20.6-22.9h88.6c64.1,0,116.1,52,116.1,116.1V2055.9z"/>
<g id="g2170" transform="translate(104.02232,1.0583265)">
	<circle id="path5263" class="st9" cx="556.8" cy="79.3" r="20.1"/>
	<circle id="path5265" class="st10" cx="556.8" cy="79.3" r="12.4"/>
	<circle id="path5267" class="st11" cx="556.8" cy="79.3" r="9.5"/>
	<g id="path5271">
		<path class="st12" d="M550.3,73c-1.1,0.1-2.7,1.8-2.8,5.2c-0.1,3.4,1.4,5.2,2.2,5.2C550.4,83.4,553.9,78.5,550.3,73L550.3,73z"/>
	</g>
	<g id="path5273">
		<path class="st12" d="M558.3,71.8c-1.8,0.5-2.1,3.4-2,5s2.4,5.9,5.2,5c2.8-1,3.3-4.5,2.1-6.9C562.4,72.5,560.3,70.8,558.3,71.8z"
			/>
	</g>
</g>
<g id="g2051" transform="matrix(0.98624005,0,0,0.98624005,1.1090123,-1.4667031)">
	<pattern  id="rect5261_2_" xlink:href="#rect5261_1_" patternTransform="matrix(1.2288 0 0 1.2288 4028.9736 17353.5)">
	</pattern>
	<path id="rect5261" class="st13" d="M512.8,71.5h98.4c5.8,0,10.5,4.7,10.5,10.5l0,0c0,5.8-4.7,10.5-10.5,10.5h-98.4
		c-5.8,0-10.5-4.7-10.5-10.5l0,0C502.3,76.2,507,71.5,512.8,71.5z"/>
	<path id="rect5261-0" class="st14" d="M512.8,71.5c-5.8,0-10.5,4.7-10.5,10.5s4.7,10.5,10.5,10.5h98.4c5.8,0,10.5-4.7,10.5-10.5
		s-4.7-10.5-10.5-10.5H512.8z"/>
	<g id="g1041" transform="matrix(0.90162812,0,0,1.2632814,4.6999299,-1.5462883)">
		<path id="path999_1_" class="st15" d="M553.5,66.1c0,1.5-1.2,2.6-2.6,2.6l0,0c-1.5,0-2.6-1.2-2.6-2.6c0-1.5,1.2-2.6,2.6-2.6
			S553.5,64.7,553.5,66.1L553.5,66.1z"/>
		<path id="path999-2_1_" class="st15" d="M684.4,66.1c0,1.5-1.2,2.6-2.6,2.6c-1.5,0-2.6-1.2-2.6-2.6l0,0c0-1.5,1.2-2.6,2.6-2.6l0,0
			C683.2,63.5,684.4,64.7,684.4,66.1z"/>
	</g>
</g>
<linearGradient id="path998_1_" gradientUnits="userSpaceOnUse" x1="-725.0428" y1="643.092" x2="-725.0428" y2="1227.9928" gradientTransform="matrix(3.7795 0 0 3.7795 3292.4495 -2414.7029)">
	<stop  offset="0" style="stop-color:#404040"/>
	<stop  offset="1" style="stop-color:#262626"/>
</linearGradient>
<path id="path998" class="st16" d="M178.5,51c-64.1,0-116.1,52-116.1,116.1v1888.8c0,64.1,52,116.1,116.1,116.1h747.3
	c64.1,0,116.1-52,116.1-116.1V167.1c0-64.1-52-116.1-116.1-116.1h-88.6c-13.6,0-20.6,1.4-20.6,22.9s-13.3,57.8-61,57.8h-407
	c-47.7,0-61-36.3-61-57.8S280.6,51,267,51H178.5z"/>
</svg>
