<svg xmlns="http://www.w3.org/2000/svg" width="34.999" height="35" viewBox="0 0 34.999 35">
    <g id="telephone_icon" data-name="telephone icon" transform="translate(-0.006)">
        <g id="Сгруппировать_2" data-name="Сгруппировать 2" transform="translate(0.006)">
            <path id="Контур_5" data-name="Контур 5"
                  d="M26.615,65.93a2.452,2.452,0,0,0-3.707,0c-.867.859-1.733,1.719-2.586,2.593a.511.511,0,0,1-.714.131c-.561-.306-1.158-.554-1.7-.889a26.887,26.887,0,0,1-6.482-5.9,15.357,15.357,0,0,1-2.323-3.722.533.533,0,0,1,.131-.685c.867-.838,1.712-1.7,2.564-2.556a2.462,2.462,0,0,0-.007-3.795c-.677-.685-1.355-1.355-2.032-2.039-.7-.7-1.391-1.406-2.1-2.1a2.468,2.468,0,0,0-3.707.007c-.874.859-1.712,1.741-2.6,2.586A4.221,4.221,0,0,0,.031,52.413a12.065,12.065,0,0,0,.932,5.193,31.555,31.555,0,0,0,5.6,9.33,34.659,34.659,0,0,0,11.478,8.98,16.6,16.6,0,0,0,6.358,1.85,4.66,4.66,0,0,0,4-1.522c.743-.83,1.58-1.588,2.367-2.382a2.478,2.478,0,0,0,.015-3.773Q28.7,68,26.615,65.93Z"
                  transform="translate(-0.006 -42.777)" fill="rgba(74,220,58,0.87)"/>
            <path id="Контур_6" data-name="Контур 6"
                  d="M245.749,106.357l2.688-.459a12.063,12.063,0,0,0-10.2-9.9l-.379,2.7a9.323,9.323,0,0,1,7.895,7.655Z"
                  transform="translate(-220.531 -89.008)" fill="rgba(74,220,58,0.87)"/>
            <path id="Контур_7" data-name="Контур 7"
                  d="M254.494,5.666A19.816,19.816,0,0,0,243.133,0l-.379,2.7a17.291,17.291,0,0,1,14.632,14.18l2.688-.459A19.962,19.962,0,0,0,254.494,5.666Z"
                  transform="translate(-225.074)" fill="rgba(74,220,58,0.87)"/>
        </g>
    </g>
</svg>
