<svg id="Capa_1" enable-background="new 0 0 511.999 511.999" height="512" viewBox="0 0 511.999 511.999" width="512" xmlns="http://www.w3.org/2000/svg"><g><path d="m438.042 181.104c4.142 0 7.5-3.357 7.5-7.5v-84.255c0-3.771-2.227-7.194-5.676-8.726l-179.994-79.803c-2.462-1.094-5.284-1.093-7.741-.002l-180.001 79.806c-3.447 1.53-5.673 4.954-5.673 8.725v155.79c0 58.229 17.579 114.271 50.835 162.068s79.694 83.76 134.292 104c2.847 1.056 5.985 1.056 8.833-.001 54.598-20.24 101.035-56.203 134.291-104s50.835-103.839 50.835-162.067v-36.534c0-4.143-3.358-7.5-7.5-7.5s-7.5 3.357-7.5 7.5v36.534c0 111.564-70.111 212.607-174.542 251.706-104.442-39.093-174.545-140.135-174.545-251.706v-152.242l174.543-77.386 174.543 77.386v80.707c0 4.143 3.358 7.5 7.5 7.5z"/><path d="m294.24 251.065c2.929 2.928 7.678 2.928 10.606 0l25.074-25.074c4.641-4.642 4.641-12.193 0-16.834l-20.295-20.297c-4.641-4.641-12.192-4.64-16.834 0l-55.547 55.548-24.587-24.588c-4.641-4.641-12.193-4.642-16.834 0l-20.297 20.297c-4.64 4.642-4.639 12.193.001 16.834l53.3 53.3c4.643 4.642 12.192 4.639 16.834 0l33.998-33.998c2.929-2.93 2.929-7.678 0-10.607-2.929-2.928-7.678-2.928-10.606 0l-31.809 31.81-48.921-48.922 15.917-15.917 24.587 24.588c4.642 4.642 12.193 4.638 16.834 0l55.546-55.548 15.917 15.917-22.885 22.885c-2.929 2.929-2.929 7.677.001 10.606z"/><path d="m255.999 481.675c4.142 0 7.5-3.357 7.5-7.5v-107.986c62.897-3.885 112.879-56.288 112.879-120.146s-49.981-116.263-112.879-120.148v-88.22c0-4.143-3.358-7.5-7.5-7.5s-7.5 3.357-7.5 7.5v88.225c-16.745 1.049-33.204 5.593-48.008 13.299-3.674 1.912-5.103 6.441-3.19 10.115 1.914 3.676 6.443 5.104 10.116 3.189 12.877-6.703 26.665-10.586 41.082-11.582v36.077c0 4.143 3.358 7.5 7.5 7.5s7.5-3.357 7.5-7.5v-36.071c54.62 3.859 97.879 49.53 97.879 105.115 0 55.584-43.259 101.255-97.879 105.114v-17.949c0-4.143-3.358-7.5-7.5-7.5s-7.5 3.357-7.5 7.5v17.949c-54.62-3.859-97.879-49.53-97.879-105.114 0-27.781 10.717-53.998 30.177-73.821 2.902-2.956 2.858-7.704-.098-10.605-2.956-2.902-7.705-2.858-10.606.098-22.23 22.645-34.473 52.593-34.473 84.329 0 63.858 49.982 116.262 112.879 120.146v107.985c0 4.143 3.358 7.501 7.5 7.501z"/></g></svg>